<?xml version="1.0" encoding="UTF-8"?><svg id="Layer_2" xmlns="http://www.w3.org/2000/svg" viewBox="0 0 305.02 26.02"><defs><style>.cls-1{fill:#232323;stroke-width:0px;}</style></defs><g id="Layer_1-2"><path class="cls-1" d="M10.36.04c2.66-.07,5.25.82,7.34,2.53l.54-1.85c0-.1.08-.17.18-.17.03,0,.05,0,.07.02.02.01.04.03.06.05s.03.04.04.07c0,.03.01.05,0,.08l.41,7.78c0,.32-.11.51-.28.51-.1,0-.19-.04-.26-.11-.07-.07-.11-.16-.12-.26C17.27,3.63,15.08.68,10.68.68S2.8,5.92,2.8,13.03s3.39,12.35,8.19,12.35c1.49-.01,2.95-.42,4.23-1.19,1.29-.77,2.36-1.87,3.1-3.19.16-.22.38-.29.54-.17.04.07.06.15.06.23s-.02.16-.06.23c-.82,1.48-2.02,2.69-3.46,3.53-1.44.83-3.07,1.25-4.73,1.21C4.42,26.02,0,20.64,0,13.03S4.42.04,10.36.04Z"/><path class="cls-1" d="M38.46,15.69l-4.14-11.05-4.18,11.05h8.32ZM47.2,25.19c0,.08-.04.16-.1.22-.06.06-.13.09-.22.1h-6.94c-.08,0-.16-.03-.22-.09-.06-.06-.09-.14-.09-.23,0-.04,0-.09.01-.13s.04-.08.07-.11c.03-.03.07-.05.11-.07.04-.01.08-.02.13-.01h1.18c.38,0,.65-.2.47-.84l-2.9-7.7h-8.78l-2.95,7.8c-.23.54.11.74.46.74h1.18s.08,0,.13.01c.04.01.08.04.11.07.03.03.05.07.07.11.01.04.02.09.01.13,0,.08-.03.17-.09.23-.06.06-.14.09-.22.09h-5.26c-.08,0-.16-.04-.22-.1-.06-.06-.09-.14-.1-.22,0-.08.03-.17.09-.23.06-.06.14-.09.22-.09h1.2c.31.01.61-.07.87-.25.26-.17.46-.42.58-.71L34.76.54h.59l8.99,23.24c.07.32.24.6.49.8s.56.3.87.29h1.2c.08,0,.16.03.22.09.06.06.09.14.09.23Z"/><path class="cls-1" d="M53.26,22.79l-.69,2.48c0,.12-.11.25-.21.25s-.18-.17-.18-.35v-8.32c0-.25.15-.49.31-.49.1.01.2.06.26.14s.11.18.11.28c.84,6.05,3.88,8.61,6.81,8.61.75.07,1.5-.03,2.21-.28s1.36-.66,1.9-1.18c.55-.53.98-1.17,1.27-1.88s.43-1.48.41-2.25c0-7.11-12.79-6.74-12.79-14.73C52.67,2.3,54.47,0,58.55,0c1.02-.03,2.04.18,2.97.62.93.44,1.75,1.11,2.38,1.94l.49-1.84c.01-.06.05-.12.1-.16.05-.04.11-.06.17-.06,0,0,.15.17.15.32l.59,7.68c0,.32-.11.51-.28.51-.1,0-.19-.04-.26-.11-.07-.07-.11-.16-.12-.26-.46-3.37-2.29-8-6.19-8-.48-.02-.96.06-1.41.24s-.86.45-1.21.8c-.35.35-.62.76-.81,1.22s-.28.95-.27,1.45c0,6.3,12.79,5.88,12.79,14.83,0,3.93-3.11,6.74-7.96,6.74-1.23.02-2.45-.25-3.57-.79-1.11-.54-2.09-1.35-2.85-2.35Z"/><path class="cls-1" d="M85.58,15.69l-4.13-11.05-4.21,11.05h8.33ZM94.33,25.19c0,.08-.04.16-.1.22-.06.06-.13.09-.22.1h-6.94c-.08,0-.16-.04-.22-.1-.06-.06-.09-.14-.1-.22,0-.04,0-.09.02-.13s.04-.08.07-.11.06-.05.1-.07.08-.02.12-.02h1.2c.36,0,.65-.2.46-.84l-2.9-7.7h-8.76l-2.96,7.8c-.21.54.13.74.47.74h1.18s.08,0,.12.02.07.04.1.07.05.07.07.11.02.08.02.13c0,.08-.04.16-.1.22-.06.06-.13.09-.22.1h-5.26c-.08,0-.16-.03-.22-.09-.06-.06-.09-.14-.09-.23,0-.04,0-.09.02-.13s.04-.08.07-.11c.03-.03.06-.05.1-.07.04-.02.08-.02.12-.02h1.18c.31.01.62-.07.88-.24s.46-.42.58-.72L81.88.54h.59l8.99,23.24c.07.32.24.6.5.8s.56.3.88.29h1.18c.08,0,.16.03.22.09.06.06.09.14.09.23Z"/><path class="cls-1" d="M124.09,2.87h-10.14v9.45h10.14c1.37.07,2.71-.35,3.81-1.18.91-.95,1.42-2.22,1.42-3.56s-.51-2.61-1.42-3.56c-1.11-.82-2.45-1.23-3.81-1.16ZM111.71,25.51V.74h12.31c1.98-.1,3.94.49,5.55,1.69.66.67,1.18,1.48,1.54,2.36s.54,1.83.54,2.79-.18,1.9-.54,2.79-.88,1.69-1.54,2.36c-1.59,1.2-3.54,1.8-5.52,1.69h-10.07v11.05l-2.28.05Z"/><path class="cls-1" d="M142.87,20.71c.93.97,2.05,1.74,3.27,2.27s2.54.8,3.87.8,2.65-.27,3.87-.8,2.34-1.3,3.27-2.27c1.83-2.08,2.84-4.78,2.84-7.58s-1.01-5.5-2.84-7.58c-.93-.97-2.05-1.74-3.27-2.27-1.23-.53-2.54-.8-3.87-.8s-2.65.27-3.87.8c-1.23.53-2.34,1.3-3.27,2.27-1.82,2.08-2.82,4.78-2.82,7.58s1,5.5,2.82,7.58ZM150.01,25.94c-1.63.04-3.25-.27-4.76-.91s-2.87-1.6-4-2.81c-2.26-2.46-3.51-5.72-3.51-9.11s1.26-6.64,3.51-9.11c2.34-2.37,5.49-3.69,8.77-3.69s6.43,1.33,8.77,3.69c1.14,1.2,2.04,2.62,2.64,4.19.6,1.56.89,3.23.85,4.91.04,1.69-.25,3.36-.87,4.93-.61,1.56-1.53,2.98-2.69,4.17-1.12,1.21-2.47,2.17-3.97,2.81s-3.11.96-4.74.93Z"/><polygon class="cls-1" points="188.39 23.34 188.39 25.51 170.05 25.51 170.05 .74 172.21 .74 172.21 23.34 188.39 23.34"/><path class="cls-1" d="M198.66,16.45h11.46l-5.71-12.71-5.75,12.71ZM214.15,25.51l-3.16-6.98h-13.28l-3.13,6.98h-2.23L203.54.61h1.72l11.17,24.9h-2.28Z"/><polygon class="cls-1" points="244.04 .74 244.04 25.68 242.5 25.68 225.2 3.47 225.2 25.51 222.97 25.51 222.97 .74 225.72 .74 241.85 21.54 241.85 .74 244.04 .74"/><path class="cls-1" d="M263.53,25.94c-1.59.05-3.17-.27-4.63-.91-1.46-.65-2.76-1.62-3.82-2.84-2.12-2.51-3.29-5.73-3.29-9.06s1.17-6.55,3.29-9.06c1.06-1.21,2.36-2.18,3.81-2.82,1.45-.65,3.02-.96,4.61-.92,1.94,0,3.85.44,5.6,1.3,1.7.79,3.13,2.07,4.13,3.69.44.69.81,1.43,1.08,2.21h-2.34c-.8-1.57-2.02-2.87-3.52-3.74-1.5-.86-3.19-1.3-4.91-1.28-1.29-.04-2.57.22-3.75.76-1.18.54-2.22,1.36-3.05,2.38-1.69,2.11-2.62,4.77-2.62,7.51s.93,5.39,2.62,7.51c.83,1.01,1.88,1.81,3.06,2.34,1.18.53,2.45.79,3.74.74,1.74.1,3.47-.32,4.98-1.22s2.73-2.23,3.51-3.84h2.31c-.48,1.47-1.31,2.8-2.41,3.86-1.13,1.1-2.45,1.98-3.9,2.59-1.44.56-2.97.84-4.5.81Z"/><path class="cls-1" d="M285.58,20.71c.94.97,2.05,1.74,3.28,2.27s2.54.8,3.87.8,2.65-.27,3.87-.8c1.23-.53,2.34-1.3,3.28-2.27,1.83-2.08,2.84-4.78,2.84-7.58s-1.01-5.5-2.84-7.58c-.94-.97-2.05-1.74-3.28-2.27-1.23-.53-2.54-.8-3.87-.8s-2.65.27-3.87.8-2.34,1.3-3.28,2.27c-1.82,2.08-2.82,4.78-2.82,7.58s1,5.5,2.82,7.58ZM292.74,25.94c-1.63.04-3.25-.27-4.76-.91s-2.87-1.6-4-2.81c-1.15-1.2-2.05-2.62-2.65-4.18-.6-1.56-.89-3.23-.86-4.91-.05-1.69.24-3.37.84-4.94.61-1.57,1.52-3,2.68-4.19,1.13-1.2,2.5-2.14,4-2.77,1.5-.63,3.12-.94,4.74-.9,1.63-.05,3.26.26,4.77.9,1.51.64,2.88,1.6,4.01,2.81,2.26,2.46,3.51,5.72,3.51,9.1s-1.26,6.64-3.51,9.1c-1.13,1.21-2.5,2.17-4.01,2.81-1.51.64-3.14.95-4.77.9Z"/></g></svg>